<svg width="32" height="32" viewBox="0 0 32 32" fill="none" xmlns="http://www.w3.org/2000/svg">
<g clip-path="url(#clip0_9409_1459)">
<path d="M22.5166 5.90649C21.8084 7.26604 20.9941 8.76638 20.0398 10.4695C20.7462 11.6801 21.4629 12.8957 22.1582 14.0749C22.3876 14.464 22.6163 14.8517 22.8438 15.2381H28.3936C29.0339 14.2108 29.5715 13.3395 30.0576 12.5409C29.4799 10.1937 28.3285 8.06977 26.7605 6.32729C25.3455 6.15289 23.9218 6.01164 22.5166 5.90649Z" fill="white"/>
<path d="M9.84274 17.9263C9.61287 17.5364 9.38468 17.1491 9.15665 16.762H3.6067C2.96533 17.791 2.42773 18.6623 1.94263 19.4592C2.5203 21.8064 3.67162 23.9302 5.23946 25.6727C6.65486 25.8471 8.07878 25.9885 9.48358 26.0935C10.1918 24.734 11.0061 23.2337 11.9602 21.5309C11.254 20.3206 10.5379 19.1054 9.84274 17.9263Z" fill="white"/>
<path d="M3.6067 15.2381H9.15642C9.38415 14.8513 9.6131 14.4631 9.84267 14.0737C10.5378 12.8948 11.2542 11.6797 11.9604 10.4695C11.0065 8.76699 10.192 7.26649 9.48358 5.90649C8.07832 6.01164 6.65447 6.15297 5.23954 6.32737C3.67169 8.06985 2.52038 10.1937 1.94263 12.5409C2.42872 13.3393 2.96632 14.2106 3.6067 15.2381Z" fill="white"/>
<path d="M21.1999 26.8644C20.4935 25.506 19.6783 24.0032 18.7198 22.2922C16.913 22.3178 15.0874 22.3178 13.2804 22.2922C12.3223 24.0026 11.507 25.5056 10.8003 26.8644C11.47 27.9924 12.0856 29.0537 12.6709 30.0891C13.7401 30.3417 14.8545 30.476 15.9997 30.476C17.1453 30.476 18.26 30.3416 19.3294 30.089C19.915 29.0528 20.5306 27.9916 21.1999 26.8644Z" fill="white"/>
<path d="M28.3933 16.762H22.8434C22.6156 17.1487 22.3877 17.5356 22.158 17.9252C21.4626 19.1046 20.7462 20.3201 20.0398 21.5309C20.9942 23.2342 21.8085 24.7345 22.5164 26.0936C23.9219 25.9884 25.3457 25.8471 26.7603 25.6727C28.3283 23.9303 29.4796 21.8065 30.0573 19.4592C29.5715 18.6609 29.0339 17.7896 28.3933 16.762Z" fill="white"/>
<path d="M12.6707 1.91094C12.0854 2.94645 11.4698 4.00778 10.8 5.1357C11.5072 6.49525 12.3226 7.99871 13.2809 9.70919C15.0879 9.68359 16.9118 9.68359 18.7188 9.70919C19.6773 7.99818 20.4928 6.49479 21.1997 5.1357C20.53 4.0077 19.9143 2.94645 19.3291 1.9111C18.2596 1.65837 17.145 1.52405 15.9994 1.52405C14.8542 1.52405 13.7399 1.65837 12.6707 1.91094Z" fill="white"/>
<path d="M13.2787 11.2331C12.57 12.4477 11.8522 13.6658 11.1553 14.8477C10.9278 15.2336 10.702 15.6168 10.4763 16C10.702 16.3832 10.9277 16.7664 11.1553 17.1523C11.8522 18.3341 12.57 19.5523 13.2787 20.7668C15.0872 20.7927 16.913 20.7927 18.7213 20.7668C19.4303 19.5519 20.1484 18.3334 20.8454 17.1511C21.0727 16.7656 21.2982 16.3828 21.5236 16C21.2982 15.6172 21.0727 15.2343 20.8454 14.8488C20.1483 13.6666 19.4302 12.448 18.7213 11.2331C16.9129 11.2073 15.0872 11.2073 13.2787 11.2331Z" fill="#00CC6F"/>
<path d="M10.5199 2.60229C9.28894 3.10767 8.14227 3.77738 7.10791 4.58492C7.90067 4.50538 8.69229 4.43643 9.47789 4.3786C9.8401 3.7687 10.1861 3.1789 10.5199 2.60229Z" fill="#00CC6F"/>
<path d="M30.4302 14.8464C30.2054 15.2102 29.9679 15.5926 29.7141 16C29.9679 16.4073 30.2054 16.7898 30.4302 17.1535C30.4604 16.7729 30.4762 16.3884 30.4762 16.0002C30.4762 15.6118 30.4604 15.2272 30.4302 14.8464Z" fill="#00CC6F"/>
<path d="M21.4802 29.3974C22.7111 28.8921 23.8576 28.2225 24.8919 27.415C24.0993 27.4945 23.3078 27.5635 22.5221 27.6213C22.1601 28.231 21.8142 28.8207 21.4802 29.3974Z" fill="#00CC6F"/>
<path d="M22.5221 4.37854C23.3076 4.43637 24.099 4.50532 24.8917 4.58486C23.8575 3.77747 22.711 3.10783 21.4802 2.60254C21.8141 3.179 22.16 3.76871 22.5221 4.37854Z" fill="#00CC6F"/>
<path d="M1.56987 17.1536C1.79463 16.7901 2.03212 16.4075 2.28606 16C2.03227 15.5926 1.79478 15.2101 1.56994 14.8464C1.53977 15.2272 1.52393 15.6118 1.52393 16.0001C1.52393 16.3884 1.53977 16.7729 1.56987 17.1536Z" fill="#00CC6F"/>
<path d="M9.47772 27.6214C8.6922 27.5636 7.90058 27.4946 7.10767 27.415C8.1421 28.2227 9.28877 28.8924 10.5199 29.3977C10.1859 28.8211 9.83993 28.2313 9.47772 27.6214Z" fill="#00CC6F"/>
<path d="M31.6222 12.541C31.6182 12.5174 31.6131 12.494 31.6069 12.4708C30.9794 9.69461 29.628 7.19008 27.7623 5.16608C27.7232 5.11107 27.677 5.06132 27.6247 5.01827C25.6026 2.87907 22.9983 1.29599 20.068 0.52509C20.0382 0.515261 20.0079 0.506957 19.9771 0.500938C18.705 0.174309 17.3723 0.000366211 15.9996 0.000366211C14.6288 0.000366211 13.2978 0.173928 12.0272 0.499719C11.9947 0.505966 11.9629 0.514728 11.9315 0.52509C9.00122 1.29606 6.39703 2.87915 4.37501 5.01842C4.32267 5.06147 4.27657 5.11107 4.23749 5.16608C2.37181 7.19008 1.02042 9.69469 0.39299 12.4711C0.386895 12.4939 0.381867 12.5169 0.377905 12.5401C0.1312 13.6548 0 14.8124 0 16.0002C0 17.1881 0.1312 18.3457 0.377981 19.4604C0.381943 19.4835 0.386895 19.5064 0.39299 19.5291C1.02042 22.3055 2.37181 24.8102 4.23764 26.8343C4.27665 26.8891 4.32267 26.9387 4.37486 26.9817C6.39977 29.1241 9.00846 30.7088 11.9439 31.4785C11.963 31.4845 11.9823 31.4898 12.0019 31.4942C13.2802 31.8242 14.6197 31.9999 15.9996 31.9999C17.3799 31.9999 18.7198 31.8242 19.9984 31.494C20.0178 31.4896 20.037 31.4843 20.0561 31.4784C22.9915 30.7086 25.6001 29.124 27.625 26.9818C27.6772 26.9388 27.7232 26.8892 27.7622 26.8343C29.6281 24.8103 30.9796 22.3056 31.6071 19.5291C31.6132 19.5063 31.6182 19.4833 31.6222 19.4599C31.8689 18.3454 32.0001 17.1879 32.0001 16.0002C32 14.8127 31.8689 13.6555 31.6222 12.541ZM21.4803 29.3975C21.8142 28.8208 22.1602 28.2311 22.5222 27.6215C23.3078 27.5637 24.0994 27.4947 24.892 27.4152C23.8577 28.2226 22.7112 28.8923 21.4803 29.3975ZM22.5165 26.0936C21.8085 24.7345 20.9943 23.2342 20.0399 21.5309C20.7464 20.3202 21.4627 19.1046 22.1581 17.9252C22.3878 17.5356 22.6157 17.1487 22.8435 16.762H28.3934C29.034 17.7896 29.5715 18.6609 30.0575 19.4592C29.4798 21.8065 28.3284 23.9303 26.7605 25.6727C25.3458 25.8471 23.9221 25.9884 22.5165 26.0936ZM9.47779 27.6215C9.84 28.2315 10.1861 28.8212 10.5198 29.3979C9.28884 28.8925 8.14209 28.2228 7.10766 27.4151C7.90065 27.4947 8.69227 27.5637 9.47779 27.6215ZM9.48358 26.0935C8.0787 25.9885 6.65486 25.8471 5.23947 25.6727C3.67162 23.9303 2.5203 21.8065 1.94263 19.4592C2.42781 18.6623 2.96533 17.791 3.6067 16.762H9.15665C9.38469 17.1491 9.61288 17.5364 9.84274 17.9263C10.5379 19.1054 11.254 20.3205 11.9602 21.5308C11.0061 23.2337 10.1918 24.734 9.48358 26.0935ZM10.5198 2.60235C10.186 3.17896 9.84 3.76875 9.47779 4.37865C8.69219 4.43648 7.90065 4.50543 7.10781 4.58498C8.14217 3.77743 9.28884 3.10772 10.5198 2.60235ZM9.4835 5.90658C10.1919 7.26658 11.0064 8.76707 11.9603 10.4696C11.2542 11.6798 10.5377 12.8948 9.84259 14.0738C9.61295 14.4632 9.38408 14.8514 9.15634 15.2382H3.60663C2.96625 14.2107 2.42865 13.3394 1.94255 12.541C2.5203 10.1937 3.67162 8.06993 5.23947 6.32745C6.65448 6.15305 8.07825 6.01172 9.4835 5.90658ZM21.5237 16.0001C21.2983 16.3828 21.0728 16.7658 20.8455 17.1512C20.1484 18.3334 19.4303 19.552 18.7214 20.7669C16.913 20.7927 15.0873 20.7927 13.2788 20.7669C12.5701 19.5524 11.8523 18.3342 11.1554 17.1524C10.9279 16.7665 10.7021 16.3832 10.4764 16.0001C10.7021 15.6168 10.9278 15.2336 11.1554 14.8478C11.8523 13.6659 12.5701 12.4478 13.2788 11.2332C15.0872 11.2074 16.913 11.2074 18.7214 11.2332C19.4304 12.4481 20.1485 13.6667 20.8455 14.8489C21.0727 15.2344 21.2982 15.6173 21.5237 16.0001ZM2.28594 16.0001C2.032 16.4076 1.79451 16.7902 1.56975 17.1537C1.53966 16.773 1.52381 16.3885 1.52381 16.0002C1.52381 15.6119 1.53966 15.2273 1.56983 14.8465C1.79467 15.2102 2.03215 15.5927 2.28594 16.0001ZM29.7141 16.0001C29.9679 15.5928 30.2054 15.2103 30.4302 14.8465C30.4604 15.2273 30.4763 15.6119 30.4763 16.0002C30.4763 16.3884 30.4604 16.7729 30.4303 17.1535C30.2054 16.7899 29.9679 16.4074 29.7141 16.0001ZM28.3934 15.2382H22.8437C22.6162 14.8518 22.3874 14.464 22.158 14.075C21.4628 12.8958 20.746 11.6801 20.0396 10.4696C20.9939 8.76654 21.8082 7.26612 22.5164 5.90658C23.9216 6.01172 25.3454 6.15298 26.7602 6.32738C28.3282 8.06985 29.4796 10.1937 30.0574 12.541C29.5712 13.3396 29.0337 14.2109 28.3934 15.2382ZM22.5222 4.37865C22.1601 3.76882 21.8141 3.17911 21.4803 2.60265C22.7111 3.10795 23.8576 3.77759 24.8918 4.58498C24.0992 4.50543 23.3077 4.4364 22.5222 4.37865ZM21.1998 5.13576C20.493 6.49484 19.6775 7.99823 18.719 9.70924C16.912 9.68364 15.0881 9.68364 13.2811 9.70924C12.3228 7.99877 11.5074 6.4953 10.8002 5.13576C11.4699 4.00783 12.0856 2.9465 12.6709 1.91099C13.74 1.65842 14.8544 1.5241 15.9997 1.5241C17.1453 1.5241 18.26 1.6585 19.3294 1.91115C19.9145 2.9465 20.5301 4.00776 21.1998 5.13576ZM12.6708 30.0891C12.0855 29.0537 11.4699 27.9924 10.8002 26.8644C11.5069 25.5055 12.3221 24.0026 13.2802 22.2923C15.0872 22.3179 16.9128 22.3179 18.7197 22.2923C19.6782 24.0032 20.4933 25.506 21.1998 26.8644C20.5305 27.9916 19.9149 29.0529 19.3292 30.089C18.2597 30.3417 17.1451 30.476 15.9995 30.476C14.8543 30.476 13.74 30.3417 12.6708 30.0891Z" fill="black"/>
</g>
<defs>
<clipPath id="clip0_9409_1459">
<rect width="32" height="32" fill="white"/>
</clipPath>
</defs>
</svg>
