<svg width="26" height="26" viewBox="0 0 800 800" fill="none" xmlns="http://www.w3.org/2000/svg">
<path d="M400 183.354L381.987 200.691C386.7 205.588 393.203 208.354 400 208.354C406.797 208.354 413.3 205.588 418.013 200.691L400 183.354ZM314.202 610.73C263.68 570.903 208.436 532.01 164.61 482.66C121.641 434.273 91.6667 377.817 91.6667 304.57H41.6667C41.6667 393.42 78.6834 461.203 127.224 515.86C174.908 569.553 235.692 612.507 283.247 649.997L314.202 610.73ZM91.6667 304.57C91.6667 232.874 132.179 172.751 187.479 147.473C241.202 122.916 313.389 129.419 381.987 200.691L418.013 166.018C336.617 81.4506 242.136 67.513 166.692 101.999C92.8238 135.764 41.6667 214.168 41.6667 304.57H91.6667ZM283.247 649.997C300.322 663.457 318.651 677.81 337.227 688.663C355.797 699.513 376.987 708.333 400 708.333V658.333C389.68 658.333 377.537 654.31 362.453 645.493C347.377 636.683 331.736 624.553 314.202 610.73L283.247 649.997ZM516.753 649.997C564.307 612.507 625.093 569.553 672.777 515.86C721.317 461.203 758.333 393.42 758.333 304.57H708.333C708.333 377.817 678.36 434.273 635.39 482.66C591.563 532.01 536.32 570.903 485.8 610.73L516.753 649.997ZM758.333 304.57C758.333 214.168 707.177 135.764 633.307 101.999C557.863 67.513 463.383 81.4506 381.987 166.018L418.013 200.691C486.61 129.419 558.797 122.916 612.52 147.473C667.82 172.751 708.333 232.874 708.333 304.57H758.333ZM485.8 610.73C468.263 624.553 452.623 636.683 437.547 645.493C422.463 654.31 410.32 658.333 400 658.333V708.333C423.013 708.333 444.203 699.513 462.773 688.663C481.35 677.81 499.677 663.457 516.753 649.997L485.8 610.73Z" fill="currentColor"/>
</svg>
