<?xml version="1.0" ?><svg viewBox="0 0 32 32" xmlns="http://www.w3.org/2000/svg"><title/><g data-name="14" id="_14"><path d="M25.71,9.29l-6-6a.93.93,0,0,0-.33-.21A1,1,0,0,0,19,3H7A1,1,0,0,0,6,4V28a1,1,0,0,0,1,1H25a1,1,0,0,0,1-1V10A1,1,0,0,0,25.71,9.29ZM20,6.41,23.59,10H20ZM8,27V5H18v6a1,1,0,0,0,1,1h5V27Z" fill="currentColor"/><path d="M21,14H11a1,1,0,0,0,0,2H21a1,1,0,0,0,0-2Z" fill="currentColor"/><path d="M21,18H11a1,1,0,0,0,0,2H21a1,1,0,0,0,0-2Z" fill="currentColor"/><path d="M21,22H11a1,1,0,0,0,0,2H21a1,1,0,0,0,0-2Z" fill="currentColor"/></g></svg>
