<svg width="36" height="36" viewBox="0 0 36 36" fill="none" xmlns="http://www.w3.org/2000/svg">
<g clip-path="url(#clip0_9409_1459)">
<path d="M25.3311 6.64478C24.5344 8.17426 23.6182 9.86215 22.5447 11.7782C23.3393 13.14 24.1457 14.5076 24.9279 15.8342C25.186 16.2719 25.4432 16.7081 25.6992 17.1428H31.9427C32.6631 15.9871 33.2678 15.0069 33.8147 14.1085C33.1648 11.4678 31.8694 9.07846 30.1054 7.11817C28.5137 6.92197 26.9119 6.76306 25.3311 6.64478Z" fill="white"/>
<path d="M11.0729 20.1671C10.8143 19.7284 10.5576 19.2927 10.3011 18.8572H4.05739C3.33585 20.0148 2.73105 20.9951 2.1853 21.8915C2.83519 24.5321 4.13042 26.9214 5.89425 28.8817C7.48656 29.078 9.08847 29.237 10.6689 29.3552C11.4656 27.8257 12.3817 26.1378 13.455 24.2222C12.6606 22.8606 11.855 21.4935 11.0729 20.1671Z" fill="white"/>
<path d="M4.05739 17.1428H10.3008C10.557 16.7077 10.8146 16.271 11.0728 15.8329C11.8548 14.5067 12.6609 13.1396 13.4553 11.7782C12.3821 9.86283 11.4658 8.17478 10.6689 6.64478C9.08796 6.76306 7.48613 6.92206 5.89433 7.11826C4.1305 9.07855 2.83527 11.4678 2.1853 14.1085C2.73216 15.0067 3.33696 15.9869 4.05739 17.1428Z" fill="white"/>
<path d="M23.8497 30.2224C23.055 28.6942 22.1379 27.0035 21.0596 25.0787C19.0269 25.1075 16.9731 25.1075 14.9402 25.0787C13.8624 27.0028 12.9452 28.6937 12.1501 30.2224C12.9036 31.4914 13.5961 32.6854 14.2546 33.8502C15.4574 34.1344 16.7111 34.2855 17.9995 34.2855C19.2883 34.2855 20.5423 34.1343 21.7453 33.85C22.4042 32.6844 23.0967 31.4905 23.8497 30.2224Z" fill="white"/>
<path d="M31.9426 18.8572H25.699C25.4427 19.2923 25.1863 19.7275 24.9279 20.1658C24.1456 21.4926 23.3397 22.8601 22.5449 24.2222C23.6186 26.1384 24.5347 27.8263 25.3311 29.3553C26.9123 29.2369 28.5141 29.0779 30.1054 28.8818C31.8694 26.9215 33.1647 24.5322 33.8146 21.8915C33.268 20.9935 32.6632 20.0133 31.9426 18.8572Z" fill="white"/>
<path d="M14.2546 2.14986C13.5961 3.3148 12.9036 4.5088 12.1501 5.77771C12.9457 7.3072 13.8631 8.9986 14.9411 10.9229C16.974 10.8941 19.0259 10.8941 21.0588 10.9229C22.1371 8.998 23.0545 7.30668 23.8497 5.77771C23.0963 4.50871 22.4037 3.3148 21.7453 2.15003C20.5422 1.86571 19.2882 1.7146 17.9995 1.7146C16.7111 1.7146 15.4574 1.86571 14.2546 2.14986Z" fill="white"/>
<path d="M14.9385 12.6373C14.1413 14.0036 13.3337 15.374 12.5498 16.7036C12.2938 17.1378 12.0398 17.5689 11.7859 18C12.0398 18.4311 12.2937 18.8623 12.5498 19.2963C13.3337 20.6259 14.1413 21.9963 14.9385 23.3627C16.9731 23.3918 19.0271 23.3918 21.0615 23.3627C21.8591 21.9959 22.667 20.6251 23.4511 19.295C23.7068 18.8613 23.9605 18.4306 24.2141 18C23.9605 17.5694 23.7068 17.1386 23.4511 16.7049C22.6669 15.3749 21.859 14.0041 21.0615 12.6373C19.027 12.6082 16.9731 12.6082 14.9385 12.6373Z" fill="#00CC6F"/>
<path d="M11.8349 2.92761C10.45 3.49616 9.16 4.24958 7.99634 5.15807C8.8882 5.06858 9.77877 4.99101 10.6626 4.92596C11.0701 4.23981 11.4593 3.5763 11.8349 2.92761Z" fill="#00CC6F"/>
<path d="M34.2339 16.7023C33.9809 17.1115 33.7137 17.5418 33.4282 18C33.7137 18.4582 33.9809 18.8886 34.2339 19.2977C34.2678 18.8696 34.2855 18.437 34.2855 18.0002C34.2856 17.5634 34.2678 17.1306 34.2339 16.7023Z" fill="#00CC6F"/>
<path d="M24.1653 33.0721C25.55 32.5037 26.8398 31.7503 28.0034 30.8419C27.1117 30.9313 26.2213 31.009 25.3374 31.0739C24.9302 31.7599 24.541 32.4233 24.1653 33.0721Z" fill="#00CC6F"/>
<path d="M25.3374 4.92598C26.2211 4.99104 27.1115 5.06861 28.0032 5.15809C26.8397 4.24978 25.5499 3.49644 24.1653 2.92798C24.5409 3.57649 24.93 4.23992 25.3374 4.92598Z" fill="#00CC6F"/>
<path d="M1.76604 19.2978C2.0189 18.8888 2.28607 18.4585 2.57176 18C2.28624 17.5418 2.01907 17.1114 1.76613 16.7023C1.73218 17.1306 1.71436 17.5634 1.71436 18.0002C1.71436 18.437 1.73218 18.8696 1.76604 19.2978Z" fill="#00CC6F"/>
<path d="M10.6624 31.0741C9.77869 31.0091 8.88812 30.9314 7.99609 30.8419C9.15984 31.7505 10.4498 32.5039 11.8348 33.0725C11.4591 32.4238 11.0699 31.7603 10.6624 31.0741Z" fill="#00CC6F"/>
<path d="M35.575 14.1086C35.5705 14.082 35.5647 14.0557 35.5578 14.0297C34.8519 10.9064 33.3315 8.0888 31.2326 5.8118C31.1886 5.74991 31.1367 5.69394 31.0778 5.64551C28.8029 3.23891 25.8731 1.45794 22.5765 0.59068C22.5429 0.579623 22.5089 0.57028 22.4743 0.563509C21.0431 0.196052 19.5438 0.000366211 17.9996 0.000366211C16.4574 0.000366211 14.9601 0.195623 13.5306 0.562138C13.4941 0.569166 13.4583 0.579023 13.4229 0.59068C10.1264 1.45802 7.19666 3.23899 4.92189 5.64568C4.863 5.69411 4.81114 5.74991 4.76717 5.8118C2.66829 8.0888 1.14797 10.9065 0.442114 14.0299C0.435257 14.0555 0.4296 14.0814 0.425143 14.1076C0.1476 15.3617 0 16.6639 0 18.0002C0 19.3366 0.1476 20.6388 0.425229 21.8929C0.429686 21.9189 0.435257 21.9447 0.442114 21.9701C1.14797 25.0937 2.66829 27.9114 4.76734 30.1885C4.81123 30.2502 4.863 30.306 4.92171 30.3544C7.19974 32.7646 10.1345 34.5473 13.4369 35.4133C13.4584 35.42 13.4801 35.426 13.5021 35.431C14.9402 35.8022 16.4472 35.9999 17.9996 35.9999C19.5524 35.9999 21.0598 35.8022 22.4982 35.4307C22.5201 35.4257 22.5417 35.4198 22.5631 35.4131C25.8654 34.5471 28.8001 32.7645 31.0781 30.3545C31.1368 30.3061 31.1886 30.2503 31.2325 30.1886C33.3316 27.9115 34.852 25.0937 35.558 21.9702C35.5648 21.9445 35.5705 21.9186 35.5749 21.8924C35.8525 20.6385 36.0001 19.3364 36.0001 18.0002C36 16.6643 35.8525 15.3623 35.575 14.1086ZM24.1653 33.0722C24.541 32.4233 24.9302 31.7599 25.3375 31.0741C26.2213 31.0091 27.1118 30.9315 28.0035 30.8421C26.8399 31.7504 25.5501 32.5037 24.1653 33.0722ZM25.3311 29.3553C24.5346 27.8263 23.6186 26.1384 22.5449 24.2222C23.3397 22.8602 24.1455 21.4926 24.9279 20.1658C25.1863 19.7275 25.4427 19.2923 25.6989 18.8572H31.9426C32.6632 20.0133 33.2679 20.9935 33.8147 21.8915C33.1647 24.5322 31.8694 26.9215 30.1055 28.8818C28.5141 29.0779 26.9123 29.2369 25.3311 29.3553ZM10.6625 31.0742C11.07 31.7603 11.4593 32.4239 11.8348 33.0725C10.4499 32.504 9.15986 31.7506 7.99611 30.842C8.88823 30.9315 9.7788 31.0091 10.6625 31.0742ZM10.669 29.3552C9.08854 29.237 7.48671 29.078 5.8944 28.8817C4.13057 26.9215 2.83534 24.5322 2.18546 21.8915C2.73129 20.9951 3.336 20.0148 4.05754 18.8572H10.3012C10.5578 19.2927 10.8145 19.7285 11.0731 20.1671C11.8551 21.4935 12.6608 22.8605 13.4553 24.2221C12.3819 26.1378 11.4657 27.8257 10.669 29.3552ZM11.8348 2.92759C11.4592 3.57628 11.07 4.23979 10.6625 4.92594C9.77871 4.99099 8.88823 5.06857 7.99629 5.15805C9.15994 4.24957 10.4499 3.49614 11.8348 2.92759ZM10.6689 6.64485C11.4659 8.17485 12.3822 9.86291 13.4553 11.7783C12.6609 13.1397 11.8549 14.5067 11.0729 15.833C10.8146 16.2711 10.5571 16.7078 10.3009 17.1429H4.05746C3.33703 15.987 2.73223 15.0068 2.18537 14.1086C2.83534 11.4679 4.13057 9.07862 5.8944 7.11834C7.48629 6.92214 9.08803 6.76314 10.6689 6.64485ZM24.2142 18C23.9606 18.4307 23.7069 18.8615 23.4512 19.2951C22.667 20.625 21.8591 21.9959 21.0616 23.3627C19.0271 23.3918 16.9732 23.3918 14.9386 23.3627C14.1414 21.9965 13.3338 20.626 12.5499 19.2964C12.2939 18.8622 12.0399 18.4311 11.786 18C12.0399 17.5689 12.2938 17.1377 12.5499 16.7037C13.3338 15.3741 14.1414 14.0037 14.9386 12.6373C16.9731 12.6083 19.0271 12.6083 21.0616 12.6373C21.8592 14.0041 22.6671 15.3749 23.4512 16.705C23.7068 17.1387 23.9605 17.5694 24.2142 18ZM2.57169 18C2.286 18.4585 2.01883 18.8889 1.76597 19.2978C1.73211 18.8696 1.71429 18.437 1.71429 18.0002C1.71429 17.5633 1.73211 17.1306 1.76606 16.7023C2.019 17.1114 2.28617 17.5418 2.57169 18ZM33.4284 18C33.7139 17.5419 33.9811 17.1115 34.234 16.7023C34.268 17.1306 34.2858 17.5633 34.2858 18.0002C34.2858 18.4369 34.268 18.8695 34.2341 19.2977C33.9811 18.8886 33.7139 18.4583 33.4284 18ZM31.9426 17.1429H25.6991C25.4432 16.7082 25.1859 16.2719 24.9278 15.8343C24.1456 14.5077 23.3392 13.1401 22.5446 11.7783C23.6181 9.86231 24.5343 8.17434 25.331 6.64485C26.9118 6.76314 28.5135 6.92205 30.1053 7.11825C31.8693 9.07854 33.1646 11.4679 33.8145 14.1086C33.2676 15.007 32.6629 15.9872 31.9426 17.1429ZM25.3375 4.92594C24.9301 4.23988 24.5409 3.57645 24.1653 2.92794C25.55 3.49639 26.8398 4.24974 28.0033 5.15805C27.1116 5.06857 26.2212 4.99091 25.3375 4.92594ZM23.8498 5.77768C23.0547 7.30665 22.1372 8.99797 21.0589 10.9229C19.026 10.8941 16.9741 10.8941 14.9412 10.9229C13.8632 8.99857 12.9458 7.30717 12.1503 5.77768C12.9037 4.50877 13.5963 3.31477 14.2547 2.14982C15.4575 1.86568 16.7112 1.71457 17.9997 1.71457C19.2885 1.71457 20.5425 1.86577 21.7455 2.14999C22.4038 3.31477 23.0964 4.50868 23.8498 5.77768ZM14.2546 33.8502C13.5962 32.6854 12.9036 31.4914 12.1502 30.2224C12.9453 28.6937 13.8624 27.0029 14.9403 25.0787C16.9731 25.1075 19.0269 25.1075 21.0597 25.0787C22.1379 27.0035 23.055 28.6943 23.8497 30.2224C23.0968 31.4905 22.4043 32.6844 21.7454 33.8501C20.5422 34.1344 19.2882 34.2855 17.9995 34.2855C16.7111 34.2855 15.4575 34.1344 14.2546 33.8502Z" fill="black"/>
</g>
<defs>
<clipPath id="clip0_9409_1459">
<rect width="36" height="36" fill="white"/>
</clipPath>
</defs>
</svg>
